<svg width="16" height="17" viewBox="0 0 16 17" fill="none" xmlns="http://www.w3.org/2000/svg">
<g clip-path="url(#clip0_6102_115801)">
<path fill-rule="evenodd" clip-rule="evenodd" d="M14.2421 5.96701L13.0046 6.50174C13.2042 6.94332 13.343 7.40785 13.4223 7.89111C13.5391 8.60227 13.5178 9.31446 13.3584 10.0086C13.1939 10.7266 12.8889 11.3938 12.4507 11.9928C12.0125 12.5919 11.4683 13.0858 10.8346 13.4589C10.2214 13.821 9.54906 14.057 8.83595 14.1611C8.12283 14.2652 7.40635 14.2321 6.70568 14.0618C5.98123 13.888 5.30411 13.5725 4.69433 13.1264C4.08454 12.6804 3.57876 12.1306 3.19285 11.494C2.81836 10.8778 2.56974 10.205 2.45299 9.49384C2.33624 8.78269 2.35749 8.0705 2.51685 7.37636C2.68137 6.65833 2.98637 5.99121 3.42458 5.39213C3.70711 5.00589 4.03678 4.66104 4.40553 4.36379C4.76292 4.07725 5.15793 3.83551 5.57887 3.64732C6.40844 3.27574 7.33175 3.11276 8.24735 3.17922C8.32905 3.18539 8.40993 3.19269 8.49112 3.20196L8.62561 1.85869C8.52375 1.8464 8.42253 1.83805 8.32131 1.8297C6.04272 1.66857 3.75154 2.62873 2.3216 4.5836C0.0926639 7.63076 0.800264 11.9409 3.90193 14.2097C7.00359 16.4785 11.3256 15.8474 13.5545 12.8002C15.0479 10.7587 15.2236 8.1491 14.2421 5.96701Z" fill="#0AE8F9"/>
<path fill-rule="evenodd" clip-rule="evenodd" d="M8.16992 6.17506C8.16992 6.00102 8.10078 5.83409 7.97771 5.71103C7.85464 5.58796 7.68772 5.51881 7.51367 5.51881C7.33963 5.51881 7.1727 5.58796 7.04963 5.71103C6.92656 5.83409 6.85742 6.00102 6.85742 6.17506V9.23756C6.85745 9.36862 6.89673 9.49667 6.97017 9.60521C7.04363 9.71375 7.1479 9.79781 7.26955 9.84656L9.45705 10.7216C9.61726 10.7801 9.79401 10.7739 9.94976 10.7044C10.1055 10.6348 10.2281 10.5073 10.2914 10.3489C10.3548 10.1906 10.354 10.0137 10.2893 9.85592C10.2245 9.69811 10.1008 9.57174 9.94442 9.50356L8.16992 8.79306V6.17506Z" fill="#0AE8F9"/>
</g>
<defs>
<clipPath id="clip0_6102_115801">
<rect width="16" height="16" fill="white" transform="translate(0 0.947388)"/>
</clipPath>
</defs>
</svg>
