<svg width="16" height="17" viewBox="0 0 16 17" fill="none" xmlns="http://www.w3.org/2000/svg">
<path d="M11.0715 7.49388C11.3095 7.25591 11.3095 6.87007 11.0715 6.63209C10.8335 6.39412 10.4477 6.39412 10.2097 6.63209L6.98438 9.85745L5.79027 8.66334C5.55229 8.42537 5.16646 8.42537 4.92848 8.66334C4.69051 8.90132 4.69051 9.28716 4.92848 9.52513L6.55348 11.1501C6.79146 11.3881 7.17729 11.3881 7.41527 11.1501L11.0715 7.49388Z" fill="#68F2B0"/>
<path fill-rule="evenodd" clip-rule="evenodd" d="M1.5 8.89111C1.5 5.30126 4.41015 2.39111 8 2.39111C11.5899 2.39111 14.5 5.30126 14.5 8.89111C14.5 12.481 11.5899 15.3911 8 15.3911C4.41015 15.3911 1.5 12.481 1.5 8.89111ZM2.71875 8.89111C2.71875 5.97436 5.08325 3.60986 8 3.60986C10.9168 3.60986 13.2812 5.97436 13.2812 8.89111C13.2812 11.8079 10.9168 14.1724 8 14.1724C5.08325 14.1724 2.71875 11.8079 2.71875 8.89111Z" fill="#68F2B0"/>
<path d="M11.0715 7.49388C11.3095 7.25591 11.3095 6.87007 11.0715 6.63209C10.8335 6.39412 10.4477 6.39412 10.2097 6.63209L6.98438 9.85745L5.79027 8.66334C5.55229 8.42537 5.16646 8.42537 4.92848 8.66334C4.69051 8.90132 4.69051 9.28716 4.92848 9.52513L6.55348 11.1501C6.79146 11.3881 7.17729 11.3881 7.41527 11.1501L11.0715 7.49388Z" stroke="#68F2B0" stroke-width="0.2" stroke-linecap="round" stroke-linejoin="round"/>
<path fill-rule="evenodd" clip-rule="evenodd" d="M1.5 8.89111C1.5 5.30126 4.41015 2.39111 8 2.39111C11.5899 2.39111 14.5 5.30126 14.5 8.89111C14.5 12.481 11.5899 15.3911 8 15.3911C4.41015 15.3911 1.5 12.481 1.5 8.89111ZM2.71875 8.89111C2.71875 5.97436 5.08325 3.60986 8 3.60986C10.9168 3.60986 13.2812 5.97436 13.2812 8.89111C13.2812 11.8079 10.9168 14.1724 8 14.1724C5.08325 14.1724 2.71875 11.8079 2.71875 8.89111Z" stroke="#68F2B0" stroke-width="0.2" stroke-linecap="round" stroke-linejoin="round"/>
</svg>
